<?xml version="1.0" encoding="utf-8"?>
<!-- Generator: Adobe Illustrator 26.0.1, SVG Export Plug-In . SVG Version: 6.00 Build 0)  -->
<svg version="1.1" id="Layer_1" xmlns="http://www.w3.org/2000/svg" xmlns:xlink="http://www.w3.org/1999/xlink" x="0px" y="0px"
	 viewBox="0 0 34 34" style="enable-background:new 0 0 34 34;" xml:space="preserve">
<g>
	<path d="M14,22.1l-1.1-2c-0.4-0.8-0.7-1.3-1-1.9h0c-0.2,0.6-0.5,1.1-0.9,1.9l-1,2H7.8l3-5.2l-2.9-5h2.1l1.1,2.1
		c0.3,0.6,0.6,1.1,0.8,1.7h0c0.3-0.6,0.5-1.1,0.8-1.7l1.1-2.1h2.1l-3,5l3.1,5.2H14z"/>
	<path d="M24,22.1l-1.1-2c-0.4-0.8-0.7-1.3-1-1.9h0c-0.2,0.6-0.5,1.1-0.9,1.9l-1,2h-2.1l3-5.2l-2.9-5h2.1l1.1,2.1
		c0.3,0.6,0.6,1.1,0.8,1.7h0c0.3-0.6,0.5-1.1,0.8-1.7l1.1-2.1h2.1l-3,5l3.1,5.2H24z"/>
</g>
</svg>
