<?xml version="1.0" encoding="utf-8"?>
<!-- Generator: Adobe Illustrator 25.0.0, SVG Export Plug-In . SVG Version: 6.00 Build 0)  -->
<svg version="1.1" id="Layer_1" xmlns="http://www.w3.org/2000/svg" xmlns:xlink="http://www.w3.org/1999/xlink" x="0px" y="0px"
	 viewBox="0 0 481 112.2" style="enable-background:new 0 0 481 112.2;" xml:space="preserve">
<style type="text/css">
	.st0{clip-path:url(#SVGID_2_);}
	.st1{fill:#FFFFFF;}
	.st2{fill:#FF0000;}
</style>
<g>
	<defs>
		<rect id="SVGID_1_" x="-48" y="-45.9" width="577" height="203.9"/>
	</defs>
	<clipPath id="SVGID_2_">
		<use xlink:href="#SVGID_1_"  style="overflow:visible;"/>
	</clipPath>
	<g id="Artboard_6" class="st0">
		<circle id="Ellipse_2" class="st1" cx="54" cy="56.1" r="40.8"/>
		<g id="Group_19">
			<path id="Path_977" class="st1" d="M137.9,28.9h12.2L163,68.6l13.2-39.7h11.9l-18.2,53.7h-13.7L137.9,28.9z M206.6,83
				c-3.8,0.1-7.5-0.8-10.9-2.5c-3.1-1.6-5.6-4.1-7.3-7.1c-3.4-6.6-3.4-14.5,0-21.2c1.7-3,4.2-5.5,7.3-7.1c6.9-3.3,14.9-3.3,21.8,0
				c3.1,1.6,5.6,4.1,7.3,7.1c3.4,6.6,3.4,14.5,0,21.2c-1.7,3-4.2,5.5-7.3,7.1C214.2,82.2,210.4,83.1,206.6,83L206.6,83z M206.6,74.2
				c2.7,0.1,5.4-1,7.2-3.1c3.5-4.9,3.5-11.5,0-16.4c-3.6-3.9-9.7-4.2-13.7-0.6c-0.2,0.2-0.4,0.4-0.6,0.6c-3.5,4.9-3.5,11.5,0,16.4
				C201.3,73.1,203.9,74.3,206.6,74.2L206.6,74.2z M242.7,62.5l-14-19.3h12.3l8.2,11.7l8.4-11.7h11.6l-13.9,19.3L270,82.5h-12.3
				l-9-12.3l-9,12.3h-11.6L242.7,62.5z M281.8,65.1c0.2,3,1.6,5.7,3.9,7.6c2.6,2,5.8,3,9.1,2.9c2.8,0.1,5.6-0.6,7.9-2.1
				c2-1.3,3.1-3.5,3-5.9c0.1-1.6-0.5-3.1-1.6-4.3c-1.3-1.1-2.8-2-4.5-2.4c-2.6-0.7-5.3-1.3-8-1.8c-3.1-0.5-6-1.3-8.9-2.4
				c-2.4-0.9-4.5-2.5-6.1-4.6c-1.7-2.3-2.5-5.2-2.3-8c0-2.9,0.8-5.8,2.4-8.2c1.7-2.5,4-4.4,6.7-5.6c6.5-2.7,13.8-2.7,20.2,0.2
				c2.9,1.3,5.3,3.3,7.1,5.9c1.7,2.5,2.7,5.5,2.8,8.6h-8.7c-0.2-2.6-1.5-5-3.6-6.7c-2.3-1.7-5.1-2.6-8-2.5c-2.6-0.1-5.3,0.6-7.5,2
				c-1.8,1.3-2.9,3.5-2.8,5.7c-0.1,1.6,0.5,3.1,1.6,4.1c1.3,1.1,2.8,1.9,4.4,2.3c1.8,0.5,4.5,1.1,7.9,1.7c3.1,0.5,6.1,1.3,9,2.5
				c2.4,0.9,4.5,2.5,6.1,4.5c1.7,2.3,2.5,5.1,2.4,7.9c0,3-0.8,6-2.5,8.5c-1.8,2.6-4.2,4.6-7.1,5.9c-3.2,1.4-6.7,2.2-10.3,2.1
				c-3.9,0.1-7.7-0.7-11.2-2.3c-3.1-1.4-5.7-3.6-7.6-6.4c-1.8-2.8-2.8-6.1-2.8-9.4L281.8,65.1z M366.7,42.8
				c3.9-0.1,7.7,1.4,10.5,4.2c2.7,2.8,4.1,7.2,4.1,13.4v22.2H373V60.5c0.2-2.8-0.5-5.5-2.1-7.8c-1.5-1.8-3.8-2.8-6.1-2.7
				c-2.6-0.1-5.1,1-6.8,3c-1.8,2.4-2.7,5.3-2.5,8.3v21.2h-8.4V60.5c0.2-2.8-0.5-5.5-2.1-7.9c-1.5-1.8-3.8-2.8-6.2-2.6
				c-2.6-0.1-5.1,1.1-6.7,3.1c-1.8,2.4-2.6,5.4-2.5,8.4v21h-8.3V43.3h7.2l0.9,5.1c2.7-3.6,7-5.7,11.5-5.6c2.5-0.1,5,0.6,7.3,1.8
				c2.1,1.2,3.8,3.1,4.8,5.4c1.3-2.2,3.2-4,5.4-5.3C361.1,43.4,363.9,42.7,366.7,42.8L366.7,42.8z M426.4,75.3v7.2H422
				c-2,0.2-3.9-0.4-5.5-1.6c-1.2-1.3-1.8-3-1.7-4.7c-2.8,4.4-7.7,7-13,6.7c-3.8,0.2-7.5-0.9-10.6-3.1c-2.6-2-4.1-5.1-4-8.4
				c-0.2-3.6,1.4-7.1,4.3-9.3c2.9-2.2,7-3.3,12.5-3.3h9.9v-2.4c0.1-2-0.8-3.9-2.3-5.2c-1.8-1.3-4.1-2-6.4-1.9
				c-2.1-0.1-4.2,0.5-5.9,1.6c-1.5,0.9-2.5,2.5-2.8,4.2h-8.1c0.3-3.7,2.2-7.1,5.2-9.2c3.6-2.3,7.8-3.5,12-3.3
				c5.3,0,9.3,1.2,12.2,3.7c3,2.7,4.5,6.6,4.3,10.6v15.5c0,1.8,0.9,2.8,2.6,2.8L426.4,75.3z M413.9,65.1h-10.3
				c-2.1-0.1-4.1,0.4-5.9,1.5c-1.4,1-2.2,2.7-2.1,4.4c0,1.6,0.7,3.1,2,4.1c1.6,1.1,3.4,1.6,5.3,1.5c2.9,0.2,5.8-0.8,8-2.8
				c2-1.9,3-4.6,3-7.4L413.9,65.1z M452.6,43.3V51h-3.7c-2.9-0.2-5.7,1-7.4,3.3c-1.6,2.5-2.4,5.5-2.3,8.5v19.7h-8.3V43.3h7.4
				l0.9,5.9c1.1-1.8,2.6-3.3,4.4-4.3c2.2-1.1,4.7-1.7,7.2-1.6L452.6,43.3z M457.9,32.3h8.3v11h9.5v7.3h-9.5V71
				c-0.1,1.2,0.2,2.3,0.9,3.3c0.9,0.7,2,1.1,3.1,1h6.3v7.3h-8c-3.7,0-6.4-0.9-8.1-2.6c-1.7-1.7-2.5-4.4-2.5-8.1L457.9,32.3z"/>
			<g id="Group_17" transform="translate(-674 -674)">
				<path id="Path_8" class="st2" d="M748.1,713.5c-1.8-1.1-4.3-0.6-5.4,1.3c0,0,0,0,0,0l-18.8,32.5c0,0.1-0.1,0.1-0.1,0.2
					c-1,1.9-0.3,4.3,1.6,5.3c1.9,1,4.3,0.3,5.3-1.6l18.8-32.5l0,0C750.4,716.9,749.8,714.6,748.1,713.5z"/>
				<path id="Path_9" class="st2" d="M727.6,679.7c-27.6,0-50,22.4-50,50c0,27.6,22.4,50,50,50c27.6,0,50-22.4,50-50c0,0,0,0,0,0
					C777.5,702.1,755.2,679.7,727.6,679.7z M756.5,722.7l-18.8,32.5l0,0c-3.3,5.7-10.6,7.7-16.4,4.4c-1.8-1.1-3.3-2.6-4.4-4.4l0,0
					l-18.8-32.5l0,0c-3.3-5.7-1.4-13.1,4.4-16.4c1.8-1.1,3.9-1.6,6-1.6v0h13.6c2.2,0,4,1.8,4,4c0,0.7-0.2,1.4-0.6,2.1l0,0l-1.5,2.5
					l-1.9,3.3l-4.7,8.1l-5.7-9.9c-1.2-1.8-3.6-2.4-5.4-1.2c-1.7,1.1-2.3,3.3-1.4,5.1l9.5,16.5c1.1,1.9,3.4,2.5,5.3,1.5
					c0.6-0.3,1.1-0.8,1.5-1.4l0,0l5.8-10.1l0,0l8.4-14.5l0,0c3.3-5.7,10.7-7.7,16.4-4.4h0C757.8,709.6,759.8,717,756.5,722.7
					L756.5,722.7z"/>
			</g>
		</g>
	</g>
</g>
</svg>
